<svg width="56" height="56" viewBox="0 0 56 56" fill="none" xmlns="http://www.w3.org/2000/svg"><g clip-path="url(#_172140873__a)"><path fill="#fff" d="M0 0h56v56H0z"/><path fill="#fff" d="M0 0h56v56H0z"/><g clip-path="url(#_172140873__b)" fill-rule="evenodd" clip-rule="evenodd"><path d="m8.537 34.253 16.072-7.76c1.903-.92 4.987-.92 6.89 0l16.073 7.761c1.901.919 1.901 2.407 0 3.325L31.5 45.341c-1.904.918-4.988.918-6.89 0L8.537 37.579c-1.903-.918-1.903-2.407 0-3.326Z" fill="url(#_172140873__c)"/><path opacity=".95" d="m8.537 25.946 16.072-7.762c1.903-.918 4.987-.918 6.89 0l16.073 7.762c1.901.918 1.901 2.407 0 3.326L31.5 37.032c-1.904.92-4.988.92-6.89 0l-16.073-7.76c-1.903-.92-1.903-2.407 0-3.326Z" fill="url(#_172140873__d)"/><path opacity=".3" d="m8.537 17.638 16.072-7.762c1.903-.918 4.987-.918 6.89 0l16.073 7.762c1.901.918 1.901 2.408 0 3.326L31.5 28.726c-1.904.917-4.988.917-6.89 0L8.537 20.963c-1.903-.92-1.903-2.408 0-3.326v.001Z" fill="url(#_172140873__e)"/></g></g><defs><linearGradient id="_172140873__c" x1="28.054" y1="46.03" x2="28.054" y2="25.803" gradientUnits="userSpaceOnUse"><stop stop-color="#626262"/><stop offset="1"/></linearGradient><linearGradient id="_172140873__d" x1="28.054" y1="37.722" x2="28.054" y2="17.496" gradientUnits="userSpaceOnUse"><stop stop-color="#00BAFF"/><stop offset="1" stop-color="#009AD3"/></linearGradient><linearGradient id="_172140873__e" x1="28.054" y1="29.414" x2="28.054" y2="9.188" gradientUnits="userSpaceOnUse"><stop stop-color="#fff"/><stop offset="1" stop-color="#DCDCDC"/></linearGradient><clipPath id="_172140873__a"><path fill="#fff" d="M0 0h56v56H0z"/></clipPath><clipPath id="_172140873__b"><path fill="#fff" transform="translate(7.11 9.188)" d="M0 0h41.891v37.625H0z"/></clipPath></defs></svg>